<?xml version="1.0" encoding="UTF-8"?>
<!DOCTYPE svg PUBLIC "-//W3C//DTD SVG 1.1//EN" "http://www.w3.org/Graphics/SVG/1.1/DTD/svg11.dtd">
<svg xmlns="http://www.w3.org/2000/svg" version="1.1" width="3063px" height="3063px" style="shape-rendering:geometricPrecision; text-rendering:geometricPrecision; image-rendering:optimizeQuality; fill-rule:evenodd; clip-rule:evenodd" xmlns:xlink="http://www.w3.org/1999/xlink">
<g><path style="opacity:0.997" fill="#326ce5" d="M 3062.5,1506.5 C 3062.5,1522.83 3062.5,1539.17 3062.5,1555.5C 3057.85,1608.21 3046.35,1659.55 3028,1709.5C 3020.22,1731.06 3011.89,1752.39 3003,1773.5C 2975.96,1833.25 2950.29,1893.59 2926,1954.5C 2913.32,1990.23 2902.65,2026.57 2894,2063.5C 2880.77,2124.34 2866.77,2185.01 2852,2245.5C 2839.76,2292.98 2822.76,2338.64 2801,2382.5C 2778.33,2424.86 2749.16,2462.36 2713.5,2495C 2675.36,2528.15 2634.69,2557.81 2591.5,2584C 2541.24,2613.27 2491.24,2642.94 2441.5,2673C 2399.36,2699.74 2359.36,2729.41 2321.5,2762C 2275.06,2804.04 2228.06,2845.37 2180.5,2886C 2139.57,2920.15 2094.9,2948.82 2046.5,2972C 1984.49,2998.8 1919.65,3010.97 1852,3008.5C 1832.49,3008.51 1812.99,3008.01 1793.5,3007C 1732.8,3002.03 1672.14,2996.69 1611.5,2991C 1557.83,2986.33 1504.17,2986.33 1450.5,2991C 1389.86,2996.6 1329.19,3001.93 1268.5,3007C 1235.85,3008.51 1203.18,3008.84 1170.5,3008C 1095.43,3004.91 1026.1,2983.57 962.5,2944C 926.052,2920.77 891.385,2895.11 858.5,2867C 819.203,2832.7 780.203,2798.04 741.5,2763C 699.639,2726.47 654.972,2693.8 607.5,2665C 557.239,2635.73 507.239,2606.06 457.5,2576C 406.384,2544.91 359.884,2507.75 318,2464.5C 273.91,2413.68 242.244,2355.68 223,2290.5C 218.023,2274.59 213.356,2258.59 209,2242.5C 195.362,2185.98 182.362,2129.31 170,2072.5C 157.343,2015.53 139.676,1960.2 117,1906.5C 97.3333,1861.5 77.6667,1816.5 58,1771.5C 33.8442,1716.88 16.1775,1660.22 5,1601.5C 2.82332,1586.72 0.989984,1572.06 -0.5,1557.5C -0.5,1539.83 -0.5,1522.17 -0.5,1504.5C 4.11428,1454.28 14.9476,1405.28 32,1357.5C 40.7787,1333.28 50.112,1309.28 60,1285.5C 79.9417,1240.62 99.6083,1195.62 119,1150.5C 140.137,1099.63 156.804,1047.29 169,993.5C 181.568,935.326 194.902,877.326 209,819.5C 221.616,768.647 239.95,719.981 264,673.5C 287.483,631.999 316.983,595.166 352.5,563C 380.555,538.478 410.221,516.145 441.5,496C 495.643,462.537 550.31,429.871 605.5,398C 654.34,368.243 700.34,334.577 743.5,297C 784.312,260.432 825.312,224.098 866.5,188C 903.735,156.107 943.735,128.107 986.5,104C 1056.07,67.3509 1130.23,50.1842 1209,52.5C 1230.18,52.9882 1251.35,53.8215 1272.5,55C 1332.85,60.135 1393.18,65.4684 1453.5,71C 1479.31,72.7388 1505.14,73.9054 1531,74.5C 1556.86,73.8702 1582.69,72.7035 1608.5,71C 1668.82,65.4684 1729.15,60.135 1789.5,55C 1844.76,50.3719 1899.76,52.3719 1954.5,61C 2005.17,70.8858 2052.5,89.2192 2096.5,116C 2144.68,146.833 2190.01,181.5 2232.5,220C 2276.98,261.16 2322.65,300.826 2369.5,339C 2390.95,355.113 2412.95,370.446 2435.5,385C 2487.84,416.837 2540.5,448.17 2593.5,479C 2634.8,504.152 2673.8,532.486 2710.5,564C 2765.71,614.232 2805.55,674.732 2830,745.5C 2839.88,773.807 2848.55,802.473 2856,831.5C 2869.26,888.442 2882.26,945.442 2895,1002.5C 2906.86,1052.42 2922.53,1101.08 2942,1148.5C 2961.39,1193.62 2981.06,1238.62 3001,1283.5C 3021.85,1331.04 3038.51,1380.04 3051,1430.5C 3056.48,1455.73 3060.32,1481.07 3062.5,1506.5 Z"/></g>
<g><path style="opacity:1" fill="#fefefe" d="M 1472.5,230.5 C 1790.39,220.336 2075.39,310.836 2327.5,502C 2545.62,673.593 2695.79,892.426 2778,1158.5C 2845.47,1392.43 2849.14,1627.43 2789,1863.5C 2705.53,2165.12 2537.7,2407.62 2285.5,2591C 2027.99,2770.47 1741.99,2849.47 1427.5,2828C 1129.2,2801.12 869.866,2687.79 649.5,2488C 409.81,2262.78 271.977,1985.62 236,1656.5C 207.629,1326.25 289.962,1027.25 483,759.5C 655.445,529.506 879.278,371.339 1154.5,285C 1242.76,259.149 1332.76,242.149 1424.5,234C 1440.68,233.24 1456.68,232.073 1472.5,230.5 Z"/></g>
<g><path style="opacity:1" fill="#326ce5" d="M 1491.5,343.5 C 1788.71,337.733 2052.71,427.233 2283.5,612C 2504.52,796.315 2643.02,1030.48 2699,1314.5C 2743.14,1568.25 2710.81,1811.59 2602,2044.5C 2474.27,2303.9 2279.1,2494.07 2016.5,2615C 1753.83,2729.05 1484.17,2748.71 1207.5,2674C 936.417,2593.79 719.251,2438.96 556,2209.5C 390.509,1966.55 321.842,1698.21 350,1404.5C 383.871,1116.27 504.371,871.768 711.5,671C 930.548,466.638 1190.55,357.472 1491.5,343.5 Z"/></g>
<g><path style="opacity:1" fill="#fdfefe" d="M 1410.5,537.5 C 1420.36,535.173 1426.52,538.839 1429,548.5C 1429.3,552.894 1429.97,557.227 1431,561.5C 1431.88,566.287 1431.55,570.953 1430,575.5C 1425.65,578.468 1420.82,580.302 1415.5,581C 1395.5,584.333 1375.5,587.666 1355.5,591C 1353,592.167 1351.17,594 1350,596.5C 1348.84,603.523 1350.34,609.856 1354.5,615.5C 1356.61,616.102 1358.77,616.435 1361,616.5C 1378.85,613.456 1396.69,610.289 1414.5,607C 1425.11,603.552 1431.94,607.052 1435,617.5C 1437.09,625.387 1437.76,633.387 1437,641.5C 1435.55,645.488 1432.72,647.988 1428.5,649C 1408.19,652.463 1387.85,655.796 1367.5,659C 1365.38,660.122 1363.54,661.622 1362,663.5C 1361.31,670.68 1362.48,677.514 1365.5,684C 1367.7,685.022 1370.04,685.522 1372.5,685.5C 1393.58,682.431 1414.58,678.931 1435.5,675C 1440.59,674.174 1445.59,674.508 1450.5,676C 1452.04,677.579 1453.21,679.413 1454,681.5C 1455.76,690.785 1457.1,700.118 1458,709.5C 1456.83,712 1455,713.833 1452.5,715C 1411.43,723.682 1370.1,730.682 1328.5,736C 1324.42,733.688 1321.92,730.188 1321,725.5C 1312.84,675.393 1304.18,625.393 1295,575.5C 1292.75,563.738 1297.59,556.904 1309.5,555C 1343.62,550.87 1377.29,545.037 1410.5,537.5 Z"/></g>
<g><path style="opacity:1" fill="#fdfefe" d="M 1656.5,539.5 C 1660.18,539.335 1663.85,539.501 1667.5,540C 1682.45,543.256 1697.45,546.256 1712.5,549C 1726.75,551.73 1740.75,555.396 1754.5,560C 1786.11,575.059 1797.28,599.559 1788,633.5C 1783.09,650.745 1772.26,662.578 1755.5,669C 1752.85,670.633 1751.52,672.967 1751.5,676C 1756.29,694.26 1761.45,712.427 1767,730.5C 1770.28,739.807 1767.12,744.473 1757.5,744.5C 1749.39,744.021 1741.39,742.854 1733.5,741C 1725.33,738.167 1719.83,732.667 1717,724.5C 1711.32,706.791 1705.65,689.124 1700,671.5C 1693.52,667.07 1686.36,665.57 1678.5,667C 1678,667.5 1677.5,668 1677,668.5C 1674.47,679.759 1672.14,691.092 1670,702.5C 1668.57,710.498 1664.74,716.998 1658.5,722C 1653.4,724.343 1648.06,725.01 1642.5,724C 1635.13,722.397 1628.3,719.563 1622,715.5C 1620.13,712.795 1619.3,709.795 1619.5,706.5C 1629.4,655.518 1639.23,604.518 1649,553.5C 1649.68,547.797 1652.18,543.13 1656.5,539.5 Z"/></g>
<g><path style="opacity:1" fill="#356de5" d="M 1697.5,589.5 C 1711.6,588.035 1724.26,591.535 1735.5,600C 1744.15,610.435 1743.15,619.768 1732.5,628C 1729.09,629.227 1725.59,630.06 1722,630.5C 1714.63,628.888 1707.13,628.054 1699.5,628C 1694.19,627.355 1690.69,624.522 1689,619.5C 1686.69,611.318 1687.02,603.318 1690,595.5C 1692.11,592.879 1694.61,590.879 1697.5,589.5 Z"/></g>
<g><path style="opacity:1" fill="#fdfefe" d="M 1995.5,650.5 C 2000.38,650.193 2005.05,651.026 2009.5,653C 2043.3,675.457 2077.63,697.124 2112.5,718C 2120.35,721.858 2123.18,728.025 2121,736.5C 2117.4,743.1 2113.4,749.434 2109,755.5C 2105.17,759.128 2100.67,760.295 2095.5,759C 2086.05,753.199 2076.38,747.866 2066.5,743C 2063.37,742.21 2060.37,742.543 2057.5,744C 2050.58,750.686 2044.75,758.186 2040,766.5C 2023.75,791.999 2007.75,817.665 1992,843.5C 1987.36,849.537 1981.53,851.037 1974.5,848C 1967.7,842.544 1960.37,837.877 1952.5,834C 1946.86,828.568 1946.02,822.401 1950,815.5C 1972.54,780.921 1994.71,746.087 2016.5,711C 2013.83,708.333 2011.17,705.667 2008.5,703C 2001,698.413 1993.33,694.08 1985.5,690C 1977.07,682.378 1976.24,673.878 1983,664.5C 1986.32,659.017 1990.49,654.351 1995.5,650.5 Z"/></g>
<g><path style="opacity:1" fill="#fdfefe" d="M 1052.5,659.5 C 1076.22,656.681 1096.05,664.014 1112,681.5C 1116.94,687.308 1116.44,692.641 1110.5,697.5C 1094.95,710.358 1077.95,712.858 1059.5,705C 1043.97,703.514 1031.47,709.014 1022,721.5C 1018.77,728.15 1017.77,735.15 1019,742.5C 1026.62,760.412 1036.29,777.079 1048,792.5C 1059.83,804.14 1073,805.64 1087.5,797C 1099.72,789.735 1105.55,778.902 1105,764.5C 1111.5,751.333 1121.33,741.5 1134.5,735C 1138.83,733.849 1142.66,734.682 1146,737.5C 1155,754.852 1155.67,772.519 1148,790.5C 1132.52,822.841 1107.02,842.008 1071.5,848C 1044.44,850.387 1022.61,840.887 1006,819.5C 994.217,804.27 984.217,787.937 976,770.5C 962.882,728.52 975.049,696.02 1012.5,673C 1025.19,666.179 1038.52,661.679 1052.5,659.5 Z"/></g>
<g><path style="opacity:1" fill="#fefefe" d="M 1516.5,976.5 C 1577.65,973.677 1624.82,997.677 1658,1048.5C 1680.15,1089.63 1683.48,1132.3 1668,1176.5C 1657.6,1202.48 1641.1,1223.65 1618.5,1240C 1608,1246.5 1597.5,1253 1587,1259.5C 1585.36,1278.74 1585.03,1298.08 1586,1317.5C 1622.43,1318.66 1658.93,1318.83 1695.5,1318C 1719.04,1299.5 1743.04,1298.83 1767.5,1316C 1786.17,1335.26 1789.67,1357.1 1778,1381.5C 1764.57,1401.79 1745.74,1409.96 1721.5,1406C 1712.28,1402.72 1703.61,1398.39 1695.5,1393C 1659.51,1393.13 1623.51,1393.47 1587.5,1394C 1587,1394.5 1586.5,1395 1586,1395.5C 1585,1551.25 1585.34,1706.91 1587,1862.5C 1589.13,1864.85 1591.8,1865.85 1595,1865.5C 1641.63,1863.08 1687.46,1855.91 1732.5,1844C 1749.17,1838.5 1765.5,1832.17 1781.5,1825C 1817,1802.83 1845.83,1774 1868,1738.5C 1868.71,1736.63 1868.21,1735.13 1866.5,1734C 1861.17,1732.67 1855.83,1731.33 1850.5,1730C 1842.01,1725.85 1839.51,1719.35 1843,1710.5C 1878.5,1676.33 1914,1642.17 1949.5,1608C 1958.07,1603.42 1964.91,1605.26 1970,1613.5C 1981.6,1659.09 1992.76,1704.75 2003.5,1750.5C 2001.91,1763.59 1994.58,1769.42 1981.5,1768C 1976.9,1766.52 1972.23,1765.36 1967.5,1764.5C 1965.37,1764.52 1963.37,1765.02 1961.5,1766C 1924.81,1836.37 1874.14,1894.7 1809.5,1941C 1797.5,1948.33 1785.5,1955.67 1773.5,1963C 1735.77,1982.2 1697.11,1999.2 1657.5,2014C 1639.46,2018.88 1621.13,2022.21 1602.5,2024C 1582.86,2042.64 1563.53,2061.64 1544.5,2081C 1534.84,2087.3 1525.51,2086.96 1516.5,2080C 1497.5,2061 1478.5,2042 1459.5,2023C 1453.4,2020.78 1447.07,2019.44 1440.5,2019C 1428.39,2016.38 1416.39,2013.38 1404.5,2010C 1329.81,1983.68 1263.81,1943.68 1206.5,1890C 1164.88,1848.57 1130.71,1801.74 1104,1749.5C 1100.7,1746.43 1096.87,1744.27 1092.5,1743C 1084.46,1743.34 1076.46,1744.01 1068.5,1745C 1062.04,1742.54 1058.71,1737.88 1058.5,1731C 1072.27,1685.03 1086.43,1639.2 1101,1593.5C 1104.01,1585.25 1109.84,1582.08 1118.5,1584C 1123.94,1588.44 1129.11,1593.27 1134,1598.5C 1164.04,1630.87 1193.7,1663.53 1223,1696.5C 1225.28,1704.44 1222.78,1710.27 1215.5,1714C 1210.52,1715.11 1205.52,1716.11 1200.5,1717C 1197.79,1718.86 1196.96,1721.36 1198,1724.5C 1219.97,1763.81 1250.14,1795.31 1288.5,1819C 1351.44,1843.94 1416.77,1857.94 1484.5,1861C 1486,1860.17 1487.17,1859 1488,1857.5C 1488.67,1703.17 1488.67,1548.83 1488,1394.5C 1487.5,1394 1487,1393.5 1486.5,1393C 1446.17,1392.33 1405.83,1392.33 1365.5,1393C 1346.4,1407.78 1325.74,1410.45 1303.5,1401C 1279.86,1385.27 1272.02,1363.77 1280,1336.5C 1294.12,1307.69 1316.62,1297.86 1347.5,1307C 1354.2,1310.68 1360.87,1314.35 1367.5,1318C 1406.17,1318.67 1444.83,1318.67 1483.5,1318C 1484.93,1317.53 1486.1,1316.7 1487,1315.5C 1488.14,1306.93 1488.64,1298.26 1488.5,1289.5C 1488.64,1280.74 1488.14,1272.07 1487,1263.5C 1415.26,1235.39 1381.26,1182.72 1385,1105.5C 1393.52,1050.98 1422.69,1011.81 1472.5,988C 1486.82,982.311 1501.49,978.477 1516.5,976.5 Z"/></g>
<g><path style="opacity:1" fill="#326ce5" d="M 1518.5,1048.5 C 1557.11,1045.21 1584.61,1060.87 1601,1095.5C 1611.08,1129.25 1603.25,1158.09 1577.5,1182C 1558.36,1196.36 1537.03,1201.03 1513.5,1196C 1471.89,1182.7 1453.06,1154.2 1457,1110.5C 1464.39,1076.61 1484.89,1055.95 1518.5,1048.5 Z"/></g>
<g><path style="opacity:1" fill="#fafbfe" d="M 970.5,1354.5 C 1013.65,1352.5 1056.31,1356 1098.5,1365C 1113.76,1369.2 1128.76,1374.2 1143.5,1380C 1173.48,1394.16 1203.81,1407.49 1234.5,1420C 1282.38,1434.96 1331.38,1440.62 1381.5,1437C 1409.36,1435.44 1436.69,1430.94 1463.5,1423.5C 1463.5,1427.83 1463.5,1432.17 1463.5,1436.5C 1398.28,1452.87 1332.62,1454.7 1266.5,1442C 1247.04,1437.4 1228.04,1431.4 1209.5,1424C 1188.38,1414.61 1167.38,1404.94 1146.5,1395C 1099.87,1375.45 1051.21,1365.95 1000.5,1366.5C 950.515,1365.58 902.515,1374.74 856.5,1394C 832.285,1405.27 807.952,1416.27 783.5,1427C 739.528,1443.35 694.028,1451.19 647,1450.5C 587.4,1451.78 530.9,1439.28 477.5,1413C 470.288,1409.23 462.955,1405.73 455.5,1402.5C 454.269,1397.8 454.436,1393.13 456,1388.5C 478.399,1399.63 501.232,1409.8 524.5,1419C 581.281,1436.82 639.281,1442.15 698.5,1435C 730.034,1431.43 760.367,1423.43 789.5,1411C 808.864,1401.98 828.197,1392.98 847.5,1384C 886.9,1366.89 927.9,1357.05 970.5,1354.5 Z"/></g>
<g><path style="opacity:1" fill="#fbfcfe" d="M 2384.5,1354.5 C 2440.42,1350.38 2494.76,1357.55 2547.5,1376C 2568.08,1384.36 2588.41,1393.19 2608.5,1402.5C 2608.78,1407.52 2608.95,1412.52 2609,1417.5C 2574.43,1399.3 2538.26,1385.13 2500.5,1375C 2433.88,1361.83 2367.88,1364.16 2302.5,1382C 2290.95,1385.78 2279.61,1390.11 2268.5,1395C 2246.74,1405.55 2224.74,1415.55 2202.5,1425C 2159.3,1441.84 2114.47,1450.34 2068,1450.5C 2013.02,1451.88 1960.18,1442.04 1909.5,1421C 1887.07,1410.12 1864.4,1399.79 1841.5,1390C 1829.69,1385.45 1817.69,1381.62 1805.5,1378.5C 1806.02,1375.11 1806.86,1371.78 1808,1368.5C 1808.39,1367.57 1809.05,1366.91 1810,1366.5C 1827.86,1371.67 1845.36,1377.84 1862.5,1385C 1884.93,1395.88 1907.6,1406.21 1930.5,1416C 1981.61,1434.14 2034.27,1441.14 2088.5,1437C 2128.41,1435.25 2166.74,1426.59 2203.5,1411C 2233.67,1396.5 2264.34,1383.17 2295.5,1371C 2324.63,1361.83 2354.3,1356.33 2384.5,1354.5 Z"/></g>
<g><path style="opacity:1" fill="#fcfdfe" d="M 982.5,1516.5 C 1038.75,1514.03 1093.08,1522.87 1145.5,1543C 1175.48,1557.16 1205.81,1570.49 1236.5,1583C 1280.44,1596.7 1325.44,1602.36 1371.5,1600C 1402.84,1599.08 1433.5,1594.25 1463.5,1585.5C 1463.5,1592.83 1463.5,1600.17 1463.5,1607.5C 1417.87,1618.95 1371.54,1623.12 1324.5,1620C 1279.5,1617.89 1236.5,1607.56 1195.5,1589C 1170.79,1577.6 1146.13,1566.26 1121.5,1555C 1056.4,1535.99 990.403,1532.32 923.5,1544C 904.052,1548.16 885.052,1553.82 866.5,1561C 837.402,1574.55 808.069,1587.55 778.5,1600C 721.553,1618.8 663.219,1625.13 603.5,1619C 564.04,1616.05 526.374,1606.39 490.5,1590C 476.047,1583.52 461.714,1576.85 447.5,1570C 446.353,1562.25 446.186,1554.41 447,1546.5C 468.896,1557.24 491.063,1567.41 513.5,1577C 544.082,1588.93 575.749,1596.26 608.5,1599C 670.259,1605.03 729.926,1596.69 787.5,1574C 808.62,1564.61 829.62,1554.94 850.5,1545C 892.795,1527.11 936.795,1517.61 982.5,1516.5 Z"/></g>
<g><path style="opacity:1" fill="#fcfcfe" d="M 1611.5,1548.5 C 1610.51,1541.69 1610.18,1534.69 1610.5,1527.5C 1678.65,1512.05 1746.65,1512.88 1814.5,1530C 1823.91,1532.8 1833.24,1535.8 1842.5,1539C 1874.35,1553.39 1906.35,1567.39 1938.5,1581C 1932.65,1586.35 1926.65,1591.52 1920.5,1596.5C 1890.71,1582.85 1860.71,1569.68 1830.5,1557C 1783.1,1541.42 1734.43,1535.09 1684.5,1538C 1659.81,1539.21 1635.48,1542.71 1611.5,1548.5 Z"/></g>
<g><path style="opacity:1" fill="#fcfdfe" d="M 2407.5,1516.5 C 2456.25,1515.39 2503.58,1522.89 2549.5,1539C 2571.13,1547.82 2592.46,1557.32 2613.5,1567.5C 2614.71,1575.19 2614.54,1582.85 2613,1590.5C 2590.06,1579.61 2566.89,1569.11 2543.5,1559C 2488.36,1540.02 2431.69,1533.36 2373.5,1539C 2336.21,1542.24 2300.54,1551.57 2266.5,1567C 2244.74,1577.55 2222.74,1587.55 2200.5,1597C 2166.35,1610.03 2131.02,1617.69 2094.5,1620C 2062.1,1621.2 2029.77,1620.37 1997.5,1617.5C 1996.71,1609.65 1994.37,1602.31 1990.5,1595.5C 1991,1595.17 1991.5,1594.83 1992,1594.5C 2049.27,1604.04 2106.11,1601.87 2162.5,1588C 2172.23,1584.87 2181.9,1581.53 2191.5,1578C 2216.13,1567.78 2240.47,1556.78 2264.5,1545C 2310.32,1525.67 2357.99,1516.17 2407.5,1516.5 Z"/></g>
<g><path style="opacity:1" fill="#638fea" d="M 1610.5,1527.5 C 1610.18,1534.69 1610.51,1541.69 1611.5,1548.5C 1611.44,1549.04 1611.11,1549.38 1610.5,1549.5C 1609.18,1542.01 1609.18,1534.68 1610.5,1527.5 Z"/></g>
<g><path style="opacity:1" fill="#fdfdfe" d="M 975.5,1712.5 C 995.514,1712.3 1015.51,1712.63 1035.5,1713.5C 1032.35,1723.59 1033.02,1733.42 1037.5,1743C 989.792,1738.93 942.792,1742.93 896.5,1755C 887.758,1757.8 879.092,1760.8 870.5,1764C 846.048,1774.73 821.715,1785.73 797.5,1797C 736.1,1821.43 672.433,1830.43 606.5,1824C 560.749,1820.61 517.582,1808.44 477,1787.5C 474.141,1775.87 471.807,1764.2 470,1752.5C 538.448,1788.81 611.281,1802.65 688.5,1794C 716.629,1791.64 743.963,1785.64 770.5,1776C 797.854,1764.82 824.854,1752.82 851.5,1740C 891.414,1723.85 932.748,1714.68 975.5,1712.5 Z"/></g>
<g><path style="opacity:1" fill="#fdfdfe" d="M 1612.5,1752.5 C 1610.53,1743.22 1609.86,1733.56 1610.5,1723.5C 1628.01,1718.52 1646.01,1715.36 1664.5,1714C 1707.11,1710.55 1749.44,1712.55 1791.5,1720C 1800.54,1722.18 1809.54,1724.51 1818.5,1727C 1821.52,1733.39 1825.52,1739.05 1830.5,1744C 1827.36,1749.44 1823.19,1753.94 1818,1757.5C 1792.55,1748.95 1766.38,1744.12 1739.5,1743C 1696.64,1739.61 1654.31,1742.78 1612.5,1752.5 Z"/></g>
<g><path style="opacity:1" fill="#fcfdfe" d="M 2389.5,1712.5 C 2460.43,1708.21 2527.76,1721.54 2591.5,1752.5C 2590.94,1762.64 2588.94,1772.64 2585.5,1782.5C 2511.91,1745.24 2434.24,1733.07 2352.5,1746C 2326.59,1749.73 2301.59,1756.73 2277.5,1767C 2251.74,1779.22 2225.74,1790.88 2199.5,1802C 2148.41,1820.14 2095.75,1827.8 2041.5,1825C 2025.76,1824.57 2010.09,1823.24 1994.5,1821C 1982.94,1819.42 1971.6,1816.92 1960.5,1813.5C 1964.92,1806.33 1969.09,1799 1973,1791.5C 1973.92,1789.69 1975.42,1788.69 1977.5,1788.5C 2029.77,1797.25 2082.1,1797.75 2134.5,1790C 2153.69,1786.43 2172.35,1781.1 2190.5,1774C 2214.92,1763.29 2239.25,1752.29 2263.5,1741C 2303.91,1723.9 2345.91,1714.4 2389.5,1712.5 Z"/></g>
<g><path style="opacity:1" fill="#6791eb" d="M 1610.5,1723.5 C 1609.86,1733.56 1610.53,1743.22 1612.5,1752.5C 1611.79,1753.4 1610.79,1753.74 1609.5,1753.5C 1609.17,1743.32 1609.51,1733.32 1610.5,1723.5 Z"/></g>
<g><path style="opacity:1" fill="#fbfcfe" d="M 1459.5,1781.5 C 1460.83,1781.5 1462.17,1781.5 1463.5,1781.5C 1463.83,1791.52 1463.5,1801.52 1462.5,1811.5C 1444.15,1816.67 1425.48,1820.34 1406.5,1822.5C 1371.07,1816.89 1336.73,1807.39 1303.5,1794C 1334.14,1795.94 1364.81,1795.94 1395.5,1794C 1417.4,1792.08 1438.73,1787.91 1459.5,1781.5 Z"/></g>
<g><path style="opacity:1" fill="#fdfefe" d="M 817.5,1992.5 C 821.869,1991.92 825.869,1992.76 829.5,1995C 837.509,2001.67 844.009,2009.5 849,2018.5C 849.772,2023.9 849.439,2029.24 848,2034.5C 839.673,2056.49 831.34,2078.49 823,2100.5C 822.251,2101.64 822.417,2102.64 823.5,2103.5C 843.43,2100.01 863.43,2096.84 883.5,2094C 901.597,2091.14 916.097,2096.97 927,2111.5C 929.211,2115.08 930.711,2118.92 931.5,2123C 931.458,2124.97 930.958,2126.8 930,2128.5C 889.5,2161.67 849,2194.83 808.5,2228C 803.785,2231.4 798.785,2232.07 793.5,2230C 788.041,2222.87 782.208,2216.04 776,2209.5C 770.513,2201.57 771.68,2194.74 779.5,2189C 795.79,2176.38 811.79,2163.38 827.5,2150C 823.573,2148.07 819.406,2147.24 815,2147.5C 805.219,2149.1 795.386,2149.6 785.5,2149C 772.648,2143.8 767.814,2134.3 771,2120.5C 773.765,2110.31 777.098,2100.31 781,2090.5C 781.781,2089.06 781.614,2087.72 780.5,2086.5C 761.977,2101.52 743.311,2116.36 724.5,2131C 719.816,2132.1 715.483,2131.44 711.5,2129C 706.69,2122.56 701.524,2116.39 696,2110.5C 690.796,2102.97 691.629,2096.13 698.5,2090C 738.937,2058.39 778.604,2025.89 817.5,1992.5 Z"/></g>
<g><path style="opacity:1" fill="#fdfefe" d="M 2235.5,2007.5 C 2277.5,2007.66 2300,2028.66 2303,2070.5C 2304.56,2073.73 2307.06,2075.9 2310.5,2077C 2327.6,2079.46 2344.6,2082.46 2361.5,2086C 2367.96,2086.78 2370.46,2090.28 2369,2096.5C 2362.72,2111.11 2352.22,2121.28 2337.5,2127C 2328.09,2128.35 2319.09,2127.02 2310.5,2123C 2299.61,2120.44 2288.61,2119.11 2277.5,2119C 2275.71,2119.78 2274.21,2120.95 2273,2122.5C 2271.25,2125.67 2269.25,2128.67 2267,2131.5C 2266.33,2133.17 2266.33,2134.83 2267,2136.5C 2280.74,2146.21 2293.74,2156.88 2306,2168.5C 2307.11,2173.61 2306.11,2178.28 2303,2182.5C 2298.59,2189.58 2293.43,2196.08 2287.5,2202C 2281.12,2205.53 2275.12,2204.86 2269.5,2200C 2231.3,2168.66 2192.47,2138.16 2153,2108.5C 2147.87,2102.68 2147.2,2096.34 2151,2089.5C 2167.33,2069.17 2183.67,2048.83 2200,2028.5C 2209.77,2017.87 2221.61,2010.87 2235.5,2007.5 Z"/></g>
<g><path style="opacity:1" fill="#356de5" d="M 2236.5,2054.5 C 2251.53,2055.34 2257.7,2063.01 2255,2077.5C 2250.08,2086.35 2244.41,2094.69 2238,2102.5C 2236.21,2104.96 2233.88,2106.62 2231,2107.5C 2225.92,2104.37 2221.09,2100.87 2216.5,2097C 2212.58,2093.58 2209.24,2089.75 2206.5,2085.5C 2213.8,2072.53 2223.8,2062.2 2236.5,2054.5 Z"/></g>
<g><path style="opacity:1" fill="#fdfefe" d="M 2061.5,2176.5 C 2066.35,2175.78 2070.52,2177.12 2074,2180.5C 2078.33,2186.83 2082.67,2193.17 2087,2199.5C 2088.12,2205.42 2086.29,2210.26 2081.5,2214C 2062.89,2226.22 2044.73,2239.05 2027,2252.5C 2026.16,2256.12 2026.83,2259.45 2029,2262.5C 2031.48,2265.95 2034.31,2269.12 2037.5,2272C 2039.17,2272.67 2040.83,2272.67 2042.5,2272C 2060.74,2258.39 2079.4,2245.56 2098.5,2233.5C 2100.58,2233.69 2102.58,2234.19 2104.5,2235C 2113.26,2241.91 2118.92,2250.74 2121.5,2261.5C 2121.55,2265.56 2119.89,2268.72 2116.5,2271C 2099.74,2282.47 2083.24,2294.3 2067,2306.5C 2065.7,2308.36 2065.37,2310.36 2066,2312.5C 2068.31,2317.61 2071.47,2322.11 2075.5,2326C 2079.81,2327.88 2083.81,2327.21 2087.5,2324C 2104.01,2312.24 2120.34,2300.24 2136.5,2288C 2143.4,2284.02 2149.57,2284.86 2155,2290.5C 2158.33,2295.17 2161.67,2299.83 2165,2304.5C 2167.79,2308.67 2168.12,2313 2166,2317.5C 2163.83,2319.67 2161.67,2321.83 2159.5,2324C 2131.31,2342.93 2103.64,2362.6 2076.5,2383C 2073.06,2385.39 2069.39,2387.22 2065.5,2388.5C 2061.11,2387.62 2057.61,2385.29 2055,2381.5C 2026.39,2340.56 1997.39,2299.89 1968,2259.5C 1963.8,2251.98 1964.96,2245.48 1971.5,2240C 2001.74,2219.06 2031.74,2197.89 2061.5,2176.5 Z"/></g>
<g><path style="opacity:1" fill="#fdfefe" d="M 1047.5,2219.5 C 1050.94,2219.3 1054.27,2219.8 1057.5,2221C 1067,2226.92 1076.67,2232.59 1086.5,2238C 1092.32,2242.14 1096.32,2247.64 1098.5,2254.5C 1089.79,2289.45 1081.29,2324.45 1073,2359.5C 1067.7,2378.02 1063.37,2396.68 1060,2415.5C 1058.23,2421.1 1054.39,2423.77 1048.5,2423.5C 1032.08,2420.24 1022.58,2410.24 1020,2393.5C 1019.67,2387.48 1019.67,2381.48 1020,2375.5C 1002.95,2363.15 985.283,2351.81 967,2341.5C 963.37,2341.8 960.87,2343.63 959.5,2347C 953.377,2353.13 946.044,2355.13 937.5,2353C 928.563,2347.73 919.897,2342.06 911.5,2336C 907.646,2331.81 907.979,2327.81 912.5,2324C 957.4,2288.92 1002.4,2254.09 1047.5,2219.5 Z"/></g>
<g><path style="opacity:1" fill="#366ee5" d="M 1043.5,2279.5 C 1042.25,2297.53 1038.25,2315.2 1031.5,2332.5C 1024.83,2329.17 1018.5,2325.34 1012.5,2321C 1009.72,2318.89 1007.72,2316.22 1006.5,2313C 1008,2309.67 1010,2306.67 1012.5,2304C 1022.73,2295.59 1033.07,2287.42 1043.5,2279.5 Z"/></g>
<g><path style="opacity:1" fill="#fdfdfe" d="M 1812.5,2314.5 C 1833.2,2311.9 1852.53,2315.74 1870.5,2326C 1876.71,2330.54 1881.88,2336.04 1886,2342.5C 1887.23,2346.59 1886.39,2350.09 1883.5,2353C 1874.65,2356.4 1865.65,2359.4 1856.5,2362C 1851.83,2362.67 1847.17,2362.67 1842.5,2362C 1836.38,2360.4 1830.38,2358.4 1824.5,2356C 1806.43,2354.71 1794.93,2362.88 1790,2380.5C 1790.31,2402.77 1796.31,2423.44 1808,2442.5C 1818.47,2454.33 1830.97,2456.83 1845.5,2450C 1857.81,2444.86 1863.65,2435.69 1863,2422.5C 1861.67,2418.9 1859.17,2417.73 1855.5,2419C 1850.29,2422.45 1844.62,2423.78 1838.5,2423C 1837.42,2422.04 1836.25,2421.21 1835,2420.5C 1831.33,2411.66 1828.16,2402.66 1825.5,2393.5C 1825.52,2391.37 1826.02,2389.37 1827,2387.5C 1829.56,2385.27 1832.4,2383.44 1835.5,2382C 1851.12,2377.46 1866.46,2372.13 1881.5,2366C 1890.25,2364.47 1896.09,2367.97 1899,2376.5C 1905.31,2391.57 1909.15,2407.24 1910.5,2423.5C 1910.26,2441.81 1903.59,2457.31 1890.5,2470C 1861.46,2496.84 1828.46,2503.18 1791.5,2489C 1775.03,2480.27 1763.53,2467.1 1757,2449.5C 1749.46,2429.01 1743.96,2408.01 1740.5,2386.5C 1742.16,2364.33 1751.83,2346.5 1769.5,2333C 1782.39,2323.43 1796.73,2317.26 1812.5,2314.5 Z"/></g>
<g><path style="opacity:1" fill="#fdfefe" d="M 1234.5,2318.5 C 1247.02,2318.14 1258.68,2320.97 1269.5,2327C 1271.36,2328.56 1272.86,2330.39 1274,2332.5C 1284.66,2363.82 1295.33,2395.16 1306,2426.5C 1313.45,2402.37 1320.11,2378.04 1326,2353.5C 1329.84,2345.84 1336.01,2343.34 1344.5,2346C 1352.92,2348.47 1361.25,2351.14 1369.5,2354C 1373.13,2357.83 1374.29,2362.33 1373,2367.5C 1357.59,2417.46 1343.59,2467.79 1331,2518.5C 1329.79,2520.05 1328.29,2521.22 1326.5,2522C 1315.68,2522.47 1305.34,2520.47 1295.5,2516C 1293,2514.17 1290.83,2512 1289,2509.5C 1278.99,2477.81 1267.99,2446.48 1256,2415.5C 1248.43,2437.77 1242.1,2460.43 1237,2483.5C 1234.82,2493.03 1228.99,2496.86 1219.5,2495C 1209.81,2492.91 1200.47,2489.91 1191.5,2486C 1188.08,2480.82 1187.58,2475.32 1190,2469.5C 1204.81,2420.46 1218.47,2371.13 1231,2321.5C 1232.15,2320.36 1233.31,2319.36 1234.5,2318.5 Z"/></g>
<g><path style="opacity:1" fill="#fdfdfe" d="M 1551.5,2362.5 C 1567.51,2360.26 1579.68,2365.93 1588,2379.5C 1592.58,2388.25 1596.58,2397.25 1600,2406.5C 1616.2,2447.95 1631.7,2489.62 1646.5,2531.5C 1645.61,2536.31 1642.61,2538.81 1637.5,2539C 1627.5,2539.72 1617.5,2540.05 1607.5,2540C 1604.1,2538.6 1601.26,2536.43 1599,2533.5C 1596.43,2528.36 1594.43,2523.03 1593,2517.5C 1592.1,2516.3 1590.93,2515.47 1589.5,2515C 1569.83,2514.33 1550.17,2514.33 1530.5,2515C 1528.71,2515.78 1527.21,2516.95 1526,2518.5C 1523.04,2530.13 1515.87,2537.97 1504.5,2542C 1496.42,2545.12 1488.09,2546.12 1479.5,2545C 1472.48,2541.83 1470.65,2536.67 1474,2529.5C 1490.14,2477.43 1506.47,2425.43 1523,2373.5C 1525.26,2370.57 1528.1,2368.4 1531.5,2367C 1538.29,2365.45 1544.96,2363.95 1551.5,2362.5 Z"/></g>
<g><path style="opacity:1" fill="#376ee5" d="M 1555.5,2419.5 C 1562.32,2434.45 1568.49,2449.79 1574,2465.5C 1575.38,2469.54 1574.21,2472.37 1570.5,2474C 1561.5,2474.67 1552.5,2474.67 1543.5,2474C 1540.05,2470.33 1539.55,2466.17 1542,2461.5C 1546.81,2447.57 1551.31,2433.57 1555.5,2419.5 Z"/></g>
</svg>
