<?xml version="1.0" encoding="UTF-8"?>
<!DOCTYPE svg PUBLIC "-//W3C//DTD SVG 1.1//EN" "http://www.w3.org/Graphics/SVG/1.1/DTD/svg11.dtd">
<svg xmlns="http://www.w3.org/2000/svg" version="1.1" width="180px" height="180px" style="shape-rendering:geometricPrecision; text-rendering:geometricPrecision; image-rendering:optimizeQuality; fill-rule:evenodd; clip-rule:evenodd" xmlns:xlink="http://www.w3.org/1999/xlink">
<g><path style="opacity:0.985" fill="#f9fbfc" d="M 66.5,10.5 C 69.8333,10.5 73.1667,10.5 76.5,10.5C 76.5,17.1667 76.5,23.8333 76.5,30.5C 76.5,32.5 76.5,34.5 76.5,36.5C 85.1667,36.5 93.8333,36.5 102.5,36.5C 102.5,30.1667 102.5,23.8333 102.5,17.5C 102.702,15.0504 102.369,12.717 101.5,10.5C 105.167,10.5 108.833,10.5 112.5,10.5C 112.5,10.8333 112.5,11.1667 112.5,11.5C 111.359,14.6399 111.192,17.9733 112,21.5C 113.421,28.9735 115.254,36.3068 117.5,43.5C 121.833,57.4975 130.5,67.8309 143.5,74.5C 142.389,77.8557 140.723,80.8557 138.5,83.5C 135.979,81.9808 133.479,80.3141 131,78.5C 130.182,84.3487 130.348,90.0154 131.5,95.5C 130.492,97.5439 129.492,99.5439 128.5,101.5C 127.67,93.0097 127.17,84.343 127,75.5C 125.333,73.8333 123.667,72.1667 122,70.5C 121.173,84.3396 121.339,98.0062 122.5,111.5C 121.89,113.434 120.89,115.101 119.5,116.5C 118.668,99.6716 118.168,82.6716 118,65.5C 116.333,62.8333 114.667,60.1667 113,57.5C 112.5,80.4976 112.333,103.498 112.5,126.5C 109.167,126.5 105.833,126.5 102.5,126.5C 102.5,111.167 102.5,95.8333 102.5,80.5C 93.8333,80.5 85.1667,80.5 76.5,80.5C 75.5039,95.324 75.1706,110.324 75.5,125.5C 72.8333,125.5 70.1667,125.5 67.5,125.5C 67.6666,101.164 67.5,76.8311 67,52.5C 66.2828,53.0442 65.7828,53.7109 65.5,54.5C 64.1798,57.8057 62.3465,60.8057 60,63.5C 59.8316,81.0048 59.3316,98.3382 58.5,115.5C 57.0582,114.18 56.3915,112.514 56.5,110.5C 56.6666,96.8293 56.4999,83.1626 56,69.5C 54.3333,71.1667 52.6667,72.8333 51,74.5C 50.8296,83.343 50.3296,92.0097 49.5,100.5C 48.8333,98.8333 48.1667,97.1667 47.5,95.5C 47.8288,89.7945 47.4954,84.1278 46.5,78.5C 44.6001,80.6159 42.2668,81.9493 39.5,82.5C 37.9757,79.9261 36.6424,77.2594 35.5,74.5C 42.1394,69.8606 47.8061,64.1939 52.5,57.5C 58.0732,49.3433 61.7399,40.3433 63.5,30.5C 64.7099,23.9037 65.7099,17.237 66.5,10.5 Z"/></g>
<g><path style="opacity:0.987" fill="#488cb3" d="M -0.5,10.5 C 21.8333,10.5 44.1667,10.5 66.5,10.5C 65.7099,17.237 64.7099,23.9037 63.5,30.5C 52.8281,30.3335 42.1615,30.5002 31.5,31C 26.2616,34.8156 26.2616,38.8156 31.5,43C 36.1667,43.3333 40.8333,43.6667 45.5,44C 42.1654,46.6786 41.6654,49.8453 44,53.5C 47.0463,54.6828 49.8796,56.0161 52.5,57.5C 47.8061,64.1939 42.1394,69.8606 35.5,74.5C 23.9296,54.2582 11.9296,34.2582 -0.5,14.5C -0.5,13.1667 -0.5,11.8333 -0.5,10.5 Z"/></g>
<g><path style="opacity:0.992" fill="#4b8ab6" d="M 76.5,10.5 C 84.8333,10.5 93.1667,10.5 101.5,10.5C 102.369,12.717 102.702,15.0504 102.5,17.5C 98.1606,16.8461 94.3273,17.8461 91,20.5C 89.7069,24.5821 90.8735,27.7487 94.5,30C 88.5092,30.4995 82.5092,30.6662 76.5,30.5C 76.5,23.8333 76.5,17.1667 76.5,10.5 Z"/></g>
<g><path style="opacity:0.985" fill="#488bb3" d="M 112.5,10.5 C 134.833,10.5 157.167,10.5 179.5,10.5C 179.5,11.8333 179.5,13.1667 179.5,14.5C 167.93,34.7418 155.93,54.7418 143.5,74.5C 130.5,67.8309 121.833,57.4975 117.5,43.5C 128.838,43.6665 140.172,43.4999 151.5,43C 156.321,39.399 156.654,35.399 152.5,31C 144.833,30.6667 137.167,30.3333 129.5,30C 133.292,27.9473 134.458,24.7806 133,20.5C 132.167,19.6667 131.333,18.8333 130.5,18C 124.509,17.5005 118.509,17.3338 112.5,17.5C 112.5,15.5 112.5,13.5 112.5,11.5C 112.5,11.1667 112.5,10.8333 112.5,10.5 Z"/></g>
<g><path style="opacity:1" fill="#87b9d2" d="M 102.5,17.5 C 102.5,23.8333 102.5,30.1667 102.5,36.5C 93.8333,36.5 85.1667,36.5 76.5,36.5C 76.5,34.5 76.5,32.5 76.5,30.5C 82.5092,30.6662 88.5092,30.4995 94.5,30C 90.8735,27.7487 89.7069,24.5821 91,20.5C 94.3273,17.8461 98.1606,16.8461 102.5,17.5 Z"/></g>
<g><path style="opacity:1" fill="#83b7d0" d="M 112.5,11.5 C 112.5,13.5 112.5,15.5 112.5,17.5C 118.509,17.3338 124.509,17.5005 130.5,18C 131.333,18.8333 132.167,19.6667 133,20.5C 134.458,24.7806 133.292,27.9473 129.5,30C 137.167,30.3333 144.833,30.6667 152.5,31C 156.654,35.399 156.321,39.399 151.5,43C 140.172,43.4999 128.838,43.6665 117.5,43.5C 115.254,36.3068 113.421,28.9735 112,21.5C 111.192,17.9733 111.359,14.6399 112.5,11.5 Z"/></g>
<g><path style="opacity:1" fill="#83b7d0" d="M 63.5,30.5 C 61.7399,40.3433 58.0732,49.3433 52.5,57.5C 49.8796,56.0161 47.0463,54.6828 44,53.5C 41.6654,49.8453 42.1654,46.6786 45.5,44C 40.8333,43.6667 36.1667,43.3333 31.5,43C 26.2616,38.8156 26.2616,34.8156 31.5,31C 42.1615,30.5002 52.8281,30.3335 63.5,30.5 Z"/></g>
<g><path style="opacity:1" fill="#5195b6" d="M 76.5,45.5 C 85.1667,45.5 93.8333,45.5 102.5,45.5C 102.5,53.8333 102.5,62.1667 102.5,70.5C 93.8333,70.5 85.1667,70.5 76.5,70.5C 76.5,62.1667 76.5,53.8333 76.5,45.5 Z"/></g>
<g><path style="opacity:1" fill="#c7dce6" d="M 76.5,80.5 C 76.5,95.8333 76.5,111.167 76.5,126.5C 73.1667,126.5 69.8333,126.5 66.5,126.5C 66.8309,102.328 66.4976,78.3275 65.5,54.5C 65.7828,53.7109 66.2828,53.0442 67,52.5C 67.5,76.8311 67.6666,101.164 67.5,125.5C 70.1667,125.5 72.8333,125.5 75.5,125.5C 75.1706,110.324 75.5039,95.324 76.5,80.5 Z"/></g>
<g><path style="opacity:0.991" fill="#4c91b3" d="M 65.5,54.5 C 66.4976,78.3275 66.8309,102.328 66.5,126.5C 65.8333,126.5 65.1667,126.5 64.5,126.5C 62.5,122.833 60.5,119.167 58.5,115.5C 59.3316,98.3382 59.8316,81.0048 60,63.5C 62.3465,60.8057 64.1798,57.8057 65.5,54.5 Z"/></g>
<g><path style="opacity:0.993" fill="#4890b1" d="M 119.5,116.5 C 118.216,120.014 116.55,123.347 114.5,126.5C 113.833,126.5 113.167,126.5 112.5,126.5C 112.333,103.498 112.5,80.4976 113,57.5C 114.667,60.1667 116.333,62.8333 118,65.5C 118.168,82.6716 118.668,99.6716 119.5,116.5 Z"/></g>
<g><path style="opacity:0.985" fill="#4c92b3" d="M 56.5,110.5 C 54.1792,107.204 51.8458,103.871 49.5,100.5C 50.3296,92.0097 50.8296,83.343 51,74.5C 52.6667,72.8333 54.3333,71.1667 56,69.5C 56.4999,83.1626 56.6666,96.8293 56.5,110.5 Z"/></g>
<g><path style="opacity:0.987" fill="#4f93b3" d="M 128.5,101.5 C 126.683,104.964 124.683,108.298 122.5,111.5C 121.339,98.0062 121.173,84.3396 122,70.5C 123.667,72.1667 125.333,73.8333 127,75.5C 127.17,84.343 127.67,93.0097 128.5,101.5 Z"/></g>
<g><path style="opacity:0.937" fill="#498eb1" d="M 47.5,95.5 C 44.5968,91.3699 41.9301,87.0366 39.5,82.5C 42.2668,81.9493 44.6001,80.6159 46.5,78.5C 47.4954,84.1278 47.8288,89.7945 47.5,95.5 Z"/></g>
<g><path style="opacity:0.943" fill="#5092b3" d="M 138.5,83.5 C 136.989,88.0038 134.656,92.0038 131.5,95.5C 130.348,90.0154 130.182,84.3487 131,78.5C 133.479,80.3141 135.979,81.9808 138.5,83.5 Z"/></g>
<g><path style="opacity:1" fill="#478fb1" d="M 76.5,80.5 C 85.1667,80.5 93.8333,80.5 102.5,80.5C 102.5,95.8333 102.5,111.167 102.5,126.5C 93.8333,126.5 85.1667,126.5 76.5,126.5C 76.5,111.167 76.5,95.8333 76.5,80.5 Z"/></g>
<g><path style="opacity:0.964" fill="#014d78" d="M 64.5,126.5 C 65.1667,126.5 65.8333,126.5 66.5,126.5C 69.8333,126.5 73.1667,126.5 76.5,126.5C 85.1667,126.5 93.8333,126.5 102.5,126.5C 105.833,126.5 109.167,126.5 112.5,126.5C 113.167,126.5 113.833,126.5 114.5,126.5C 106.36,139.955 98.6936,153.622 91.5,167.5C 88.7081,167.548 86.8747,166.215 86,163.5C 79.1065,150.959 71.9399,138.626 64.5,126.5 Z"/></g>
</svg>
