<?xml version="1.0" encoding="UTF-8"?>
<!DOCTYPE svg PUBLIC "-//W3C//DTD SVG 1.1//EN" "http://www.w3.org/Graphics/SVG/1.1/DTD/svg11.dtd">
<svg xmlns="http://www.w3.org/2000/svg" version="1.1" width="400px" height="150px" style="shape-rendering:geometricPrecision; text-rendering:geometricPrecision; image-rendering:optimizeQuality; fill-rule:evenodd; clip-rule:evenodd" xmlns:xlink="http://www.w3.org/1999/xlink">
<g><path style="opacity:0.784" fill="#ee5a24" d="M 113.5,-0.5 C 114.167,-0.5 114.833,-0.5 115.5,-0.5C 118.361,5.41666 121.028,11.4167 123.5,17.5C 120.833,17.5 118.167,17.5 115.5,17.5C 114.833,11.5 114.167,5.5 113.5,-0.5 Z"/></g>
<g><path style="opacity:0.856" fill="#ef7725" d="M 146.5,27.5 C 143.167,27.5 139.833,27.5 136.5,27.5C 136.436,20.5547 136.436,13.8881 136.5,7.5C 139.317,14.4676 142.65,21.1342 146.5,27.5 Z"/></g>
<g><path style="opacity:0.805" fill="#ef7825" d="M 105.5,26.5 C 103.735,27.4614 101.735,27.7947 99.5,27.5C 97.2327,22.4532 95.566,17.1198 94.5,11.5C 95.675,11.281 96.675,11.6143 97.5,12.5C 100.179,17.194 102.845,21.8607 105.5,26.5 Z"/></g>
<g><path style="opacity:0.907" fill="#ef8425" d="M 115.5,17.5 C 118.167,17.5 120.833,17.5 123.5,17.5C 125.226,22.6171 127.226,27.6171 129.5,32.5C 125.167,32.5 120.833,32.5 116.5,32.5C 116.663,27.453 116.329,22.453 115.5,17.5 Z"/></g>
<g><path style="opacity:0.947" fill="#f08925" d="M 236.5,31.5 C 202.833,32.8333 169.167,32.8333 135.5,31.5C 135.433,30.0413 135.766,28.7079 136.5,27.5C 139.833,27.5 143.167,27.5 146.5,27.5C 148.506,28.5108 150.506,29.5108 152.5,30.5C 170.702,23.2544 189.369,21.7544 208.5,26C 217.937,27.3874 227.27,29.2207 236.5,31.5 Z"/></g>
<g><path style="opacity:0.758" fill="#f08d26" d="M 55.5,34.5 C 54.0813,35.4511 52.4147,35.7845 50.5,35.5C 48.4297,33.0361 46.5963,30.3695 45,27.5C 44.2506,26.365 44.4173,25.365 45.5,24.5C 49.8548,26.8548 53.1881,30.1881 55.5,34.5 Z"/></g>
<g><path style="opacity:0.973" fill="#f09626" d="M 105.5,26.5 C 108.101,29.6043 110.934,32.6043 114,35.5C 114.852,34.4293 115.685,33.4293 116.5,32.5C 120.833,32.5 125.167,32.5 129.5,32.5C 131.998,35.2537 133.998,34.9204 135.5,31.5C 169.167,32.8333 202.833,32.8333 236.5,31.5C 244.124,33.6559 251.79,35.6559 259.5,37.5C 207.003,38.4989 154.336,38.8323 101.5,38.5C 100.833,34.8333 100.167,31.1667 99.5,27.5C 101.735,27.7947 103.735,27.4614 105.5,26.5 Z"/></g>
<g><path style="opacity:0.968" fill="#f19c26" d="M 101.5,38.5 C 154.336,38.8323 207.003,38.4989 259.5,37.5C 262.252,38.5115 264.919,39.5115 267.5,40.5C 201.264,41.831 134.931,41.831 68.5,40.5C 68.5394,39.4168 68.8728,38.4168 69.5,37.5C 67.5,32.8333 65.5,28.1667 63.5,23.5C 63.8333,23.1667 64.1667,22.8333 64.5,22.5C 69.9394,27.8616 75.2727,33.3616 80.5,39C 81.635,39.7494 82.635,39.5827 83.5,38.5C 82.7542,37.2638 82.4208,35.9305 82.5,34.5C 85.6136,35.0913 88.1136,36.758 90,39.5C 88.3383,33.7891 85.6717,28.4557 82,23.5C 81.2506,22.365 81.4173,21.365 82.5,20.5C 88.8538,26.5216 95.1871,32.5216 101.5,38.5 Z"/></g>
<g><path style="opacity:0.978" fill="#f1a726" d="M 55.5,34.5 C 58.2971,36.795 60.9638,39.295 63.5,42C 65.6742,42.8769 67.3409,42.3769 68.5,40.5C 134.931,41.831 201.264,41.831 267.5,40.5C 273.898,41.9669 280.232,43.6336 286.5,45.5C 208.668,46.4993 130.668,46.8326 52.5,46.5C 50.6535,44.9699 49.6535,42.9699 49.5,40.5C 51.3307,41.0522 52.9974,41.0522 54.5,40.5C 53.1431,38.8144 51.8098,37.1477 50.5,35.5C 52.4147,35.7845 54.0813,35.4511 55.5,34.5 Z"/></g>
<g><path style="opacity:0.893" fill="#f2b225" d="M 52.5,46.5 C 130.668,46.8326 208.668,46.4993 286.5,45.5C 290.697,46.5418 294.697,47.8751 298.5,49.5C 242.331,49.1677 186.331,49.501 130.5,50.5C 111.109,45.6941 92.1085,47.0274 73.5,54.5C 61.8333,54.5 50.1667,54.5 38.5,54.5C 36.5389,52.0365 34.3722,49.7032 32,47.5C 31.4092,46.5165 31.7425,45.8499 33,45.5C 37.1553,47.9126 41.1553,50.5793 45,53.5C 45.5,53 46,52.5 46.5,52C 41.974,46.3077 37.6406,40.4743 33.5,34.5C 34,34.1667 34.5,33.8333 35,33.5C 40.1069,36.2721 44.2736,40.1054 47.5,45C 48.9663,45.6355 50.2997,46.4688 51.5,47.5C 52.1067,47.3764 52.44,47.0431 52.5,46.5 Z"/></g>
<g><path style="opacity:0.972" fill="#f2bc25" d="M 130.5,50.5 C 186.331,49.501 242.331,49.1677 298.5,49.5C 304.253,50.5961 309.586,52.5961 314.5,55.5C 304.652,55.1729 294.986,55.5062 285.5,56.5C 272.009,53.3902 258.343,52.2235 244.5,53C 242.548,53.3661 240.882,54.1995 239.5,55.5C 234.167,55.5 228.833,55.5 223.5,55.5C 221.614,54.6394 219.78,53.6394 218,52.5C 206.346,59.205 193.846,61.705 180.5,60C 173.495,57.4968 166.495,54.9968 159.5,52.5C 157.235,53.4316 155.235,54.7649 153.5,56.5C 147.833,55.1667 142.167,55.1667 136.5,56.5C 135.194,53.8611 133.194,51.8611 130.5,50.5 Z"/></g>
<g><path style="opacity:0.956" fill="#f2cc25" d="M 153.5,56.5 C 151.198,61.7312 149.531,67.0646 148.5,72.5C 148.5,70.5 148.5,68.5 148.5,66.5C 144.833,66.5 141.167,66.5 137.5,66.5C 137.384,63.1401 137.051,59.8067 136.5,56.5C 142.167,55.1667 147.833,55.1667 153.5,56.5 Z"/></g>
<g><path style="opacity:0.946" fill="#f1cf24" d="M 38.5,54.5 C 50.1667,54.5 61.8333,54.5 73.5,54.5C 72.5244,55.8149 71.5244,57.1482 70.5,58.5C 72.215,60.8818 74.215,62.8818 76.5,64.5C 72.2984,64.1832 68.2984,64.5166 64.5,65.5C 50.0404,62.0895 36.3737,64.0895 23.5,71.5C 22.0821,69.6921 20.0821,69.0254 17.5,69.5C 17.4142,68.5041 17.7476,67.6708 18.5,67C 13.9244,66.0499 10.9244,67.8833 9.5,72.5C 9.62358,73.1067 9.95691,73.44 10.5,73.5C 9.38757,74.3718 8.05424,74.3718 6.5,73.5C 4.95894,74.2858 3.6256,75.2858 2.5,76.5C 7.00752,64.6811 15.6742,58.6811 28.5,58.5C 27.4196,56.0038 26.0862,53.6705 24.5,51.5C 24.8333,51.1667 25.1667,50.8333 25.5,50.5C 28.5,52 31.5,53.5 34.5,55C 36.0657,55.765 37.3991,55.5983 38.5,54.5 Z"/></g>
<g><path style="opacity:0.948" fill="#f2ce24" d="M 285.5,56.5 C 294.986,55.5062 304.652,55.1729 314.5,55.5C 324.716,58.3449 334.383,62.3449 343.5,67.5C 340.367,66.9893 337.2,66.656 334,66.5C 331.39,66.5332 329.223,67.1999 327.5,68.5C 313.909,63.0808 299.909,59.0808 285.5,56.5 Z"/></g>
<g><path style="opacity:0.984" fill="#f2d024" d="M 223.5,55.5 C 228.833,55.5 234.167,55.5 239.5,55.5C 238.916,58.0034 238.249,60.5034 237.5,63C 238.287,65.0989 238.62,67.2655 238.5,69.5C 237.596,68.791 237.263,67.791 237.5,66.5C 233.821,66.0604 230.488,66.727 227.5,68.5C 226.918,63.9166 225.585,59.5833 223.5,55.5 Z"/></g>
<g><path style="opacity:1" fill="#1f1e10" d="M 17.5,69.5 C 15.6282,71.6037 13.2948,72.937 10.5,73.5C 9.95691,73.44 9.62358,73.1067 9.5,72.5C 10.9244,67.8833 13.9244,66.0499 18.5,67C 17.7476,67.6708 17.4142,68.5041 17.5,69.5 Z"/></g>
<g><path style="opacity:0.942" fill="#fafafb" d="M 24.5,118.5 C 21.1667,118.5 17.8333,118.5 14.5,118.5C 10.8739,96.5959 19.5405,81.7626 40.5,74C 54.3996,70.6828 66.5663,73.8495 77,83.5C 76.2087,86.6428 74.2087,88.9761 71,90.5C 56.1236,79.219 42.1236,80.219 29,93.5C 23.7319,101.171 22.2319,109.505 24.5,118.5 Z"/></g>
<g><path style="opacity:0.934" fill="#fafbfb" d="M 194.5,113.5 C 191.167,114.833 187.833,114.833 184.5,113.5C 184.5,112.167 184.5,110.833 184.5,109.5C 182.167,109.5 179.833,109.5 177.5,109.5C 177.5,106.5 177.5,103.5 177.5,100.5C 179.833,100.5 182.167,100.5 184.5,100.5C 181.342,79.3259 190.342,69.9926 211.5,72.5C 210.626,75.7893 209.959,79.1226 209.5,82.5C 195.994,81.0231 190.994,87.0231 194.5,100.5C 199.167,100.5 203.833,100.5 208.5,100.5C 208.5,103.5 208.5,106.5 208.5,109.5C 203.833,109.5 199.167,109.5 194.5,109.5C 194.5,110.833 194.5,112.167 194.5,113.5 Z"/></g>
<g><path style="opacity:0.989" fill="#f1e723" d="M 17.5,69.5 C 20.0821,69.0254 22.0821,69.6921 23.5,71.5C 14.9249,75.684 10.5916,82.3507 10.5,91.5C 9.23221,90.5721 7.89888,90.4054 6.5,91C 4.24194,93.4659 1.9086,95.6326 -0.5,97.5C -0.5,93.8333 -0.5,90.1667 -0.5,86.5C 0.490491,83.2569 1.49049,79.9236 2.5,76.5C 3.6256,75.2858 4.95894,74.2858 6.5,73.5C 8.05424,74.3718 9.38757,74.3718 10.5,73.5C 13.2948,72.937 15.6282,71.6037 17.5,69.5 Z"/></g>
<g><path style="opacity:0.989" fill="#f1e424" d="M 76.5,64.5 C 82.6632,67.4832 88.1632,71.4832 93,76.5C 95.5018,79.5113 96.0018,82.8446 94.5,86.5C 91.2617,83.0253 87.7617,82.692 84,85.5C 83.376,83.5355 83.876,81.8689 85.5,80.5C 85,79.5 84.5,78.5 84,77.5C 77.5197,73.3493 71.0197,69.3493 64.5,65.5C 68.2984,64.5166 72.2984,64.1832 76.5,64.5 Z"/></g>
<g><path style="opacity:0.991" fill="#f1e723" d="M 137.5,66.5 C 141.167,66.5 144.833,66.5 148.5,66.5C 148.5,68.5 148.5,70.5 148.5,72.5C 148.638,80.2465 150.971,87.2465 155.5,93.5C 155,93.8333 154.5,94.1667 154,94.5C 146.824,92.2011 139.657,92.5344 132.5,95.5C 131.359,93.5787 131.192,91.5787 132,89.5C 134.31,81.9271 136.143,74.2604 137.5,66.5 Z"/></g>
<g><path style="opacity:0.983" fill="#f1e823" d="M 238.5,69.5 C 240.771,77.9791 243.438,86.3125 246.5,94.5C 238.646,91.6206 230.979,91.9539 223.5,95.5C 223.167,95.1667 222.833,94.8333 222.5,94.5C 226.102,86.222 227.769,77.5553 227.5,68.5C 230.488,66.727 233.821,66.0604 237.5,66.5C 237.263,67.791 237.596,68.791 238.5,69.5 Z"/></g>
<g><path style="opacity:0.914" fill="#f1e723" d="M 343.5,67.5 C 357.575,73.3697 370.909,80.5364 383.5,89C 390.449,95.1104 395.783,102.277 399.5,110.5C 399.5,116.167 399.5,121.833 399.5,127.5C 395.859,135.441 391.192,142.774 385.5,149.5C 384.5,149.5 383.5,149.5 382.5,149.5C 401.368,126.3 398.034,106.467 372.5,90C 357.991,81.7448 342.991,74.5781 327.5,68.5C 329.223,67.1999 331.39,66.5332 334,66.5C 337.2,66.656 340.367,66.9893 343.5,67.5 Z"/></g>
<g><path style="opacity:0.899" fill="#f2f4f5" d="M 81.5,118.5 C 78.1667,118.5 74.8333,118.5 71.5,118.5C 71.5,115.833 71.5,113.167 71.5,110.5C 64.5,110.5 57.5,110.5 50.5,110.5C 50.5,107.167 50.5,103.833 50.5,100.5C 60.8333,100.5 71.1667,100.5 81.5,100.5C 81.5,106.5 81.5,112.5 81.5,118.5 Z"/></g>
<g><path style="opacity:0.936" fill="#f2f3f4" d="M 102.5,119.5 C 99.3752,118.521 96.0419,118.187 92.5,118.5C 92.5,112.5 92.5,106.5 92.5,100.5C 95.8333,100.5 99.1667,100.5 102.5,100.5C 102.281,101.675 102.614,102.675 103.5,103.5C 108.51,100.431 113.843,99.4306 119.5,100.5C 118.358,103.399 117.692,106.399 117.5,109.5C 110.338,109.673 105.338,113.006 102.5,119.5 Z"/></g>
<g><path style="opacity:0.927" fill="#f0f2f3" d="M 170.5,120.5 C 166.958,120.187 163.625,120.521 160.5,121.5C 157.191,112.055 150.525,108.222 140.5,110C 138.253,111.277 136.253,112.777 134.5,114.5C 130.629,114.815 126.962,114.482 123.5,113.5C 128.952,102.274 137.952,97.7742 150.5,100C 154.127,100.564 157.293,102.064 160,104.5C 160.49,103.207 160.657,101.873 160.5,100.5C 163.833,100.5 167.167,100.5 170.5,100.5C 170.5,107.167 170.5,113.833 170.5,120.5 Z"/></g>
<g><path style="opacity:0.997" fill="#edeff1" d="M 261.5,119.5 C 257.936,118.577 254.269,118.244 250.5,118.5C 245.83,109.843 238.83,107.343 229.5,111C 227.304,112.699 225.304,114.533 223.5,116.5C 220.167,116.5 216.833,116.5 213.5,116.5C 216.935,105.268 224.602,99.6013 236.5,99.5C 241.98,99.4085 246.814,101.075 251,104.5C 251.49,103.207 251.657,101.873 251.5,100.5C 254.833,100.5 258.167,100.5 261.5,100.5C 261.5,106.833 261.5,113.167 261.5,119.5 Z"/></g>
<g><path style="opacity:0.998" fill="#e9ecee" d="M 372.5,120.5 C 369.287,120.19 366.287,120.523 363.5,121.5C 358.416,108.82 350.083,106.153 338.5,113.5C 336.046,116.076 334.379,119.076 333.5,122.5C 330.5,122.5 327.5,122.5 324.5,122.5C 325.938,108.063 333.938,100.396 348.5,99.5C 353.98,99.4085 358.814,101.075 363,104.5C 363.49,103.207 363.657,101.873 363.5,100.5C 366.5,100.5 369.5,100.5 372.5,100.5C 372.5,107.167 372.5,113.833 372.5,120.5 Z"/></g>
<g><path style="opacity:0.968" fill="#eceef0" d="M 317.5,118.5 C 314.167,118.5 310.833,118.5 307.5,118.5C 304.041,111.437 298.374,108.604 290.5,110C 284.665,112.659 281.998,117.159 282.5,123.5C 281.596,122.791 281.263,121.791 281.5,120.5C 278.5,120.5 275.5,120.5 272.5,120.5C 272.5,113.833 272.5,107.167 272.5,100.5C 275.833,100.5 279.167,100.5 282.5,100.5C 282.351,101.552 282.517,102.552 283,103.5C 294.998,96.9163 305.331,98.9163 314,109.5C 315.664,112.327 316.83,115.327 317.5,118.5 Z"/></g>
<g><path style="opacity:0.958" fill="#ced4d8" d="M 123.5,113.5 C 126.962,114.482 130.629,114.815 134.5,114.5C 132.432,117.253 131.098,120.253 130.5,123.5C 126.988,122.945 123.988,123.612 121.5,125.5C 120.903,125.265 120.57,124.765 120.5,124C 121.029,120.243 122.029,116.743 123.5,113.5 Z"/></g>
<g><path style="opacity:0.999" fill="#b6bec4" d="M 184.5,113.5 C 187.833,114.833 191.167,114.833 194.5,113.5C 194.5,124.833 194.5,136.167 194.5,147.5C 191.167,147.5 187.833,147.5 184.5,147.5C 184.5,136.167 184.5,124.833 184.5,113.5 Z"/></g>
<g><path style="opacity:1" fill="#b0b9bf" d="M 92.5,118.5 C 96.0419,118.187 99.3752,118.521 102.5,119.5C 102.5,128.833 102.5,138.167 102.5,147.5C 99.1667,147.5 95.8333,147.5 92.5,147.5C 92.5,137.833 92.5,128.167 92.5,118.5 Z"/></g>
<g><path style="opacity:1" fill="#b0b9bf" d="M 307.5,118.5 C 310.833,118.5 314.167,118.5 317.5,118.5C 317.5,128.167 317.5,137.833 317.5,147.5C 314.167,147.5 310.833,147.5 307.5,147.5C 307.5,137.833 307.5,128.167 307.5,118.5 Z"/></g>
<g><path style="opacity:0.991" fill="#aeb7bd" d="M 14.5,118.5 C 17.8333,118.5 21.1667,118.5 24.5,118.5C 30.8188,134.66 42.4855,140.827 59.5,137C 63.8974,135.383 67.7308,132.883 71,129.5C 71.4986,125.848 71.6653,122.182 71.5,118.5C 74.8333,118.5 78.1667,118.5 81.5,118.5C 81.6659,123.511 81.4993,128.511 81,133.5C 73.488,143.672 63.3213,148.672 50.5,148.5C 30.863,147.521 18.863,137.521 14.5,118.5 Z"/></g>
<g><path style="opacity:0.967" fill="#acb6bc" d="M 170.5,120.5 C 170.5,129.5 170.5,138.5 170.5,147.5C 167.167,147.5 163.833,147.5 160.5,147.5C 160.657,146.127 160.49,144.793 160,143.5C 145.855,151.945 133.855,149.612 124,136.5C 122.096,133.077 121.263,129.41 121.5,125.5C 123.988,123.612 126.988,122.945 130.5,123.5C 132.907,136.08 140.241,140.58 152.5,137C 157.956,133.254 160.623,128.088 160.5,121.5C 163.625,120.521 166.958,120.187 170.5,120.5 Z"/></g>
<g><path style="opacity:0.997" fill="#aeb7bd" d="M 213.5,116.5 C 216.833,116.5 220.167,116.5 223.5,116.5C 219.598,128.696 223.932,136.03 236.5,138.5C 244.354,138.156 249.187,134.156 251,126.5C 251.43,123.808 251.263,121.141 250.5,118.5C 254.269,118.244 257.936,118.577 261.5,119.5C 261.5,128.833 261.5,138.167 261.5,147.5C 258.167,147.5 254.833,147.5 251.5,147.5C 251.657,146.127 251.49,144.793 251,143.5C 238.614,151.062 227.281,149.728 217,139.5C 212.556,132.255 211.389,124.589 213.5,116.5 Z"/></g>
<g><path style="opacity:0.992" fill="#acb5bb" d="M 372.5,120.5 C 372.5,129.5 372.5,138.5 372.5,147.5C 369.5,147.5 366.5,147.5 363.5,147.5C 363.657,146.127 363.49,144.793 363,143.5C 347.719,152.403 335.386,149.403 326,134.5C 324.734,130.605 324.234,126.605 324.5,122.5C 327.5,122.5 330.5,122.5 333.5,122.5C 335.452,135.631 342.785,140.465 355.5,137C 360.956,133.254 363.623,128.088 363.5,121.5C 366.287,120.523 369.287,120.19 372.5,120.5 Z"/></g>
<g><path style="opacity:0.97" fill="#acb5bc" d="M 272.5,120.5 C 275.5,120.5 278.5,120.5 281.5,120.5C 281.263,121.791 281.596,122.791 282.5,123.5C 282.5,131.5 282.5,139.5 282.5,147.5C 279.167,147.5 275.833,147.5 272.5,147.5C 272.5,138.5 272.5,129.5 272.5,120.5 Z"/></g>
</svg>
