<?xml version="1.0" encoding="UTF-8"?>
<!DOCTYPE svg PUBLIC "-//W3C//DTD SVG 1.1//EN" "http://www.w3.org/Graphics/SVG/1.1/DTD/svg11.dtd">
<svg xmlns="http://www.w3.org/2000/svg" version="1.1" width="150px" height="160px" style="shape-rendering:geometricPrecision; text-rendering:geometricPrecision; image-rendering:optimizeQuality; fill-rule:evenodd; clip-rule:evenodd" xmlns:xlink="http://www.w3.org/1999/xlink">
<g><path style="opacity:0.717" fill="#2d5d83" d="M 110.5,20.5 C 110.5,21.1667 110.833,21.5 111.5,21.5C 113.573,23.5573 115.906,24.3907 118.5,24C 117.167,24.6667 117.167,25.3333 118.5,26C 121.295,27.2997 123.961,28.7997 126.5,30.5C 127.451,29.6744 128.451,29.5078 129.5,30C 129.381,31.2812 129.881,32.4479 131,33.5C 131.718,32.5494 132.551,32.3828 133.5,33C 139.181,37.2673 142.015,42.7673 142,49.5C 143.043,45.7741 143.543,46.1074 143.5,50.5C 142.503,69.9929 142.17,89.6596 142.5,109.5C 141.167,110.5 141.167,111.5 142.5,112.5C 142.072,116.244 140.405,119.244 137.5,121.5C 137.167,120.167 136.833,120.167 136.5,121.5C 135.833,121.5 135.5,121.833 135.5,122.5C 134.833,122.5 134.5,122.833 134.5,123.5C 133.833,123.5 133.5,123.833 133.5,124.5C 132.833,124.5 132.5,124.833 132.5,125.5C 131.167,125.833 131.167,126.167 132.5,126.5C 130.853,128.326 128.853,129.66 126.5,130.5C 125.833,129.167 125.167,129.167 124.5,130.5C 123.167,130.833 123.167,131.167 124.5,131.5C 124.027,132.906 123.027,133.573 121.5,133.5C 120.833,132.167 120.167,132.167 119.5,133.5C 118.508,133.328 117.842,133.662 117.5,134.5C 116.167,134.833 116.167,135.167 117.5,135.5C 117.027,136.906 116.027,137.573 114.5,137.5C 113.833,136.167 113.167,136.167 112.5,137.5C 111.167,137.833 111.167,138.167 112.5,138.5C 112.158,139.338 111.492,139.672 110.5,139.5C 110.167,138.167 109.833,138.167 109.5,139.5C 108.508,139.328 107.842,139.662 107.5,140.5C 106.508,140.328 105.842,140.662 105.5,141.5C 104.833,141.5 104.5,141.833 104.5,142.5C 103.508,142.328 102.842,142.662 102.5,143.5C 101.508,143.328 100.842,143.662 100.5,144.5C 99.5084,144.328 98.8417,144.662 98.5,145.5C 97.8333,145.5 97.5,145.833 97.5,146.5C 96.5084,146.328 95.8417,146.662 95.5,147.5C 94.5084,147.328 93.8417,147.662 93.5,148.5C 92.1667,148.833 92.1667,149.167 93.5,149.5C 93.1583,150.338 92.4916,150.672 91.5,150.5C 91.1667,149.167 90.8333,149.167 90.5,150.5C 89.5084,150.328 88.8417,150.662 88.5,151.5C 87.5084,151.328 86.8417,151.662 86.5,152.5C 85.5084,152.328 84.8417,152.662 84.5,153.5C 82.901,153.232 81.5676,153.566 80.5,154.5C 73.5961,154.934 66.9295,153.934 60.5,151.5C 60.5,150.833 60.1667,150.5 59.5,150.5C 52.5261,146.347 44.6928,141.681 36,136.5C 35.2825,137.451 34.4491,137.617 33.5,137C 34.8333,136.333 34.8333,135.667 33.5,135C 32.1667,135 30.8333,135 29.5,135C 29.1667,134 28.8333,133 28.5,132C 26.5979,130.349 24.5979,130.016 22.5,131C 21.1667,130.333 21.1667,129.667 22.5,129C 20.6841,127.059 18.6841,126.392 16.5,127C 15,125.5 13.5,124 12,122.5C 12.6171,120.905 12.2837,119.572 11,118.5C 10.6667,118.833 10.3333,119.167 10,119.5C 7.5465,116.425 6.0465,112.925 5.5,109C 6.63503,88.4876 6.8017,67.9876 6,47.5C 6.33333,48.8333 6.66667,50.1667 7,51.5C 8.03485,49.1089 8.20152,46.7756 7.5,44.5C 8.33333,42.8333 9.16667,41.1667 10,39.5C 13.15,38.4287 15.9833,36.262 18.5,33C 17.1667,32.3333 17.1667,31.6667 18.5,31C 19.549,30.5078 20.549,30.6744 21.5,31.5C 23.3359,30.081 25.3359,28.9143 27.5,28C 28.8333,27.3333 28.8333,26.6667 27.5,26C 30.0941,26.3907 32.4275,25.5573 34.5,23.5C 35.1667,23.5 35.5,23.1667 35.5,22.5C 38.8793,22.2452 40.5459,20.7452 40.5,18C 41.8333,18 43.1667,18 44.5,18C 44.8333,17 45.1667,16 45.5,15C 47.5979,15.9845 49.5979,15.6511 51.5,14C 51.8333,13 52.1667,12 52.5,11C 53.549,10.5078 54.549,10.6744 55.5,11.5C 57.2705,10.9646 57.6039,10.1313 56.5,9C 58.8734,9.36196 61.2068,8.69529 63.5,7C 62.8333,6.66667 62.1667,6.33333 61.5,6C 66.5915,3.58141 71.9249,2.58141 77.5,3C 75.8333,3.33333 74.1667,3.66667 72.5,4C 78.877,4.64087 84.877,6.4742 90.5,9.5C 91.1667,9.16667 91.8333,8.83333 92.5,8.5C 94.2759,9.31485 94.9426,10.4815 94.5,12C 96.4021,13.6511 98.4021,13.9845 100.5,13C 100.833,14 101.167,15 101.5,16C 102.549,16.4922 103.549,16.3256 104.5,15.5C 106.276,16.3148 106.943,17.4815 106.5,19C 107.745,19.7914 109.078,20.2914 110.5,20.5 Z"/></g>
<g><path style="opacity:1" fill="#fcfdfe" d="M 70.5,9.5 C 75.4116,9.06311 80.0783,9.89644 84.5,12C 98.5,20 112.5,28 126.5,36C 131.317,39.4622 134.817,43.9622 137,49.5C 137.667,69.5 137.667,89.5 137,109.5C 135.292,114.412 132.458,118.579 128.5,122C 112.792,131.521 96.7918,140.521 80.5,149C 75.4107,149.826 70.4107,149.492 65.5,148C 49.4181,138.877 33.5847,129.377 18,119.5C 15.2235,116.282 13.2235,112.615 12,108.5C 11.3333,89.1667 11.3333,69.8333 12,50.5C 14.3026,43.8607 18.4693,38.694 24.5,35C 39.7915,26.1581 55.1249,17.6581 70.5,9.5 Z"/></g>
<g><path style="opacity:0.009" fill="#285b81" d="M 110.5,20.5 C 111.497,19.2875 112.497,19.4542 113.5,21C 112.906,21.4643 112.239,21.631 111.5,21.5C 110.833,21.5 110.5,21.1667 110.5,20.5 Z"/></g>
<g><path style="opacity:0.01" fill="#285b81" d="M 35.5,22.5 C 34.8333,22.5 34.5,22.8333 34.5,23.5C 32.0248,23.2533 32.0248,22.5866 34.5,21.5C 35.1067,21.6236 35.44,21.9569 35.5,22.5 Z"/></g>
<g><path style="opacity:1" fill="#366fe6" d="M 71.5,38.5 C 84.7211,42.3567 97.2211,48.0234 109,55.5C 112.527,67.6671 114.86,80.0004 116,92.5C 108.859,101.942 101.359,111.109 93.5,120C 80.8333,120.667 68.1667,120.667 55.5,120C 47.6412,111.109 40.1412,101.942 33,92.5C 34.1401,80.0004 36.4734,67.6671 40,55.5C 40.8333,54.6667 41.6667,53.8333 42.5,53C 52.4752,48.6791 62.1418,43.8457 71.5,38.5 Z"/></g>
<g><path style="opacity:1" fill="#f2f5fd" d="M 72.5,49.5 C 73.8333,49.5 75.1667,49.5 76.5,49.5C 76.5,52.5 76.5,55.5 76.5,58.5C 82.0634,59.1159 87.0634,61.1159 91.5,64.5C 93.9591,62.6968 96.6257,61.3635 99.5,60.5C 99.6495,61.552 99.4828,62.552 99,63.5C 96.6921,64.6411 94.8587,66.3078 93.5,68.5C 96.7617,73.2886 98.2617,78.6219 98,84.5C 100.069,85.2638 102.236,85.7638 104.5,86C 105.841,87.8265 105.341,88.9931 103,89.5C 100.95,88.2088 98.783,87.7088 96.5,88C 94.4848,93.0186 91.3182,97.1852 87,100.5C 87.2358,103.646 88.0691,106.646 89.5,109.5C 88.448,109.649 87.448,109.483 86.5,109C 85.6705,107.184 84.8372,105.351 84,103.5C 83.2753,102.941 82.4419,102.608 81.5,102.5C 76.6594,103.804 71.826,103.804 67,102.5C 66.228,102.645 65.5613,102.978 65,103.5C 64.1628,105.351 63.3295,107.184 62.5,109C 61.552,109.483 60.552,109.649 59.5,109.5C 60.9309,106.646 61.7642,103.646 62,100.5C 57.6818,97.1852 54.5152,93.0186 52.5,88C 50.217,87.7088 48.0503,88.2088 46,89.5C 43.6587,88.9931 43.1587,87.8265 44.5,86C 46.764,85.7638 48.9307,85.2638 51,84.5C 50.7383,78.6219 52.2383,73.2886 55.5,68.5C 53.9918,66.4925 52.1584,64.8259 50,63.5C 49.5172,62.552 49.3505,61.552 49.5,60.5C 52.3743,61.3635 55.0409,62.6968 57.5,64.5C 61.9366,61.1159 66.9366,59.1159 72.5,58.5C 72.5,55.5 72.5,52.5 72.5,49.5 Z"/></g>
<g><path style="opacity:0.012" fill="#285b81" d="M 143.5,50.5 C 144.833,70.1667 144.833,89.8333 143.5,109.5C 143.5,89.8333 143.5,70.1667 143.5,50.5 Z"/></g>
<g><path style="opacity:1" fill="#386fe6" d="M 69.5,63.5 C 71.3878,65.9878 72.0545,68.9878 71.5,72.5C 70.7494,73.5735 69.7494,73.7401 68.5,73C 66.269,71.3903 64.269,69.557 62.5,67.5C 64.3999,65.3841 66.7332,64.0507 69.5,63.5 Z"/></g>
<g><path style="opacity:1" fill="#3a70e6" d="M 78.5,63.5 C 88.051,65.16 88.7177,68.3266 80.5,73C 79.2506,73.7401 78.2506,73.5735 77.5,72.5C 77.19,69.2869 77.5233,66.2869 78.5,63.5 Z"/></g>
<g><path style="opacity:1" fill="#a7bff4" d="M 69.5,63.5 C 70.209,62.596 71.209,62.2627 72.5,62.5C 72.8128,66.0419 72.4794,69.3752 71.5,72.5C 72.0545,68.9878 71.3878,65.9878 69.5,63.5 Z"/></g>
<g><path style="opacity:1" fill="#a6bff4" d="M 78.5,63.5 C 77.5233,66.2869 77.19,69.2869 77.5,72.5C 76.1944,69.3132 76.1944,65.9798 77.5,62.5C 78.1067,62.6236 78.44,62.9569 78.5,63.5 Z"/></g>
<g><path style="opacity:1" fill="#3c72e6" d="M 58.5,72.5 C 60.5952,73.412 62.5952,74.5787 64.5,76C 66.0074,76.8373 66.5074,78.0039 66,79.5C 63.1651,80.4195 60.3318,81.4195 57.5,82.5C 56.1465,78.9795 56.4798,75.6462 58.5,72.5 Z"/></g>
<g><path style="opacity:1" fill="#4173e7" d="M 89.5,71.5 C 92.055,74.6269 93.055,78.2935 92.5,82.5C 88.5552,82.5222 85.2219,81.1888 82.5,78.5C 85.0602,76.3879 87.3936,74.0546 89.5,71.5 Z"/></g>
<g><path style="opacity:1" fill="#3a70e6" d="M 72.5,78.5 C 76.1378,77.7366 77.6378,79.0699 77,82.5C 72.4155,84.4126 70.9155,83.0793 72.5,78.5 Z"/></g>
<g><path style="opacity:1" fill="#96b2f2" d="M 59.5,86.5 C 58.8902,87.391 58.5569,88.391 58.5,89.5C 57.1148,88.0527 57.4482,87.0527 59.5,86.5 Z"/></g>
<g><path style="opacity:1" fill="#3f72e7" d="M 58.5,89.5 C 58.5569,88.391 58.8902,87.391 59.5,86.5C 61.5466,86.4889 63.5466,86.1556 65.5,85.5C 67.0004,85.4528 68.0004,86.1195 68.5,87.5C 67.1622,90.1756 65.8289,92.8422 64.5,95.5C 61.6068,94.3694 59.6068,92.3694 58.5,89.5 Z"/></g>
<g><path style="opacity:1" fill="#4173e7" d="M 81.5,85.5 C 92.0663,84.9852 93.733,88.1519 86.5,95C 85.552,95.4828 84.552,95.6495 83.5,95.5C 83.0761,92.646 82.0761,89.9793 80.5,87.5C 80.8627,86.8165 81.1961,86.1499 81.5,85.5 Z"/></g>
<g><path style="opacity:1" fill="#4173e7" d="M 73.5,89.5 C 75.9877,90.7399 77.8211,92.7399 79,95.5C 79.658,97.108 79.158,98.2747 77.5,99C 74.3172,100.031 71.6506,99.3647 69.5,97C 70.9658,94.5682 72.2992,92.0682 73.5,89.5 Z"/></g>
<g><path style="opacity:0.009" fill="#285b81" d="M 142.5,109.5 C 142.833,109.5 143.167,109.5 143.5,109.5C 143.737,110.791 143.404,111.791 142.5,112.5C 142.5,111.5 142.5,110.5 142.5,109.5 Z"/></g>
<g><path style="opacity:0.012" fill="#285b81" d="M 136.5,121.5 C 136.833,121.5 137.167,121.5 137.5,121.5C 137.315,122.17 136.981,122.17 136.5,121.5 Z"/></g>
<g><path style="opacity:0.012" fill="#285b81" d="M 135.5,122.5 C 135.833,122.5 136.167,122.5 136.5,122.5C 136.315,123.17 135.981,123.17 135.5,122.5 Z"/></g>
<g><path style="opacity:0.02" fill="#285b81" d="M 134.5,123.5 C 134.833,123.5 135.167,123.5 135.5,123.5C 135.315,124.17 134.981,124.17 134.5,123.5 Z"/></g>
<g><path style="opacity:0.012" fill="#285b81" d="M 133.5,124.5 C 133.833,124.5 134.167,124.5 134.5,124.5C 134.315,125.17 133.981,125.17 133.5,124.5 Z"/></g>
<g><path style="opacity:0.012" fill="#285b81" d="M 132.5,125.5 C 132.833,125.5 133.167,125.5 133.5,125.5C 133.315,126.17 132.981,126.17 132.5,125.5 Z"/></g>
<g><path style="opacity:0.01" fill="#285b81" d="M 124.5,131.5 C 124.5,131.167 124.5,130.833 124.5,130.5C 125.167,130.5 125.833,130.5 126.5,130.5C 126.158,131.338 125.492,131.672 124.5,131.5 Z"/></g>
<g><path style="opacity:0.012" fill="#285b81" d="M 119.5,134.5 C 119.5,134.167 119.5,133.833 119.5,133.5C 120.167,133.5 120.833,133.5 121.5,133.5C 121.158,134.338 120.492,134.672 119.5,134.5 Z"/></g>
<g><path style="opacity:0.01" fill="#285b81" d="M 117.5,135.5 C 117.5,135.167 117.5,134.833 117.5,134.5C 118.167,134.5 118.833,134.5 119.5,134.5C 119.158,135.338 118.492,135.672 117.5,135.5 Z"/></g>
<g><path style="opacity:0.01" fill="#285b81" d="M 112.5,138.5 C 112.5,138.167 112.5,137.833 112.5,137.5C 113.167,137.5 113.833,137.5 114.5,137.5C 114.158,138.338 113.492,138.672 112.5,138.5 Z"/></g>
<g><path style="opacity:0.012" fill="#285b81" d="M 109.5,139.5 C 109.833,139.5 110.167,139.5 110.5,139.5C 110.315,140.17 109.981,140.17 109.5,139.5 Z"/></g>
<g><path style="opacity:0.012" fill="#285b81" d="M 107.5,141.5 C 107.5,141.167 107.5,140.833 107.5,140.5C 108.167,140.5 108.833,140.5 109.5,140.5C 109.158,141.338 108.492,141.672 107.5,141.5 Z"/></g>
<g><path style="opacity:0.01" fill="#285b81" d="M 105.5,142.5 C 105.5,142.167 105.5,141.833 105.5,141.5C 106.167,141.5 106.833,141.5 107.5,141.5C 107.158,142.338 106.492,142.672 105.5,142.5 Z"/></g>
<g><path style="opacity:0.012" fill="#285b81" d="M 104.5,142.5 C 104.833,142.5 105.167,142.5 105.5,142.5C 105.315,143.17 104.981,143.17 104.5,142.5 Z"/></g>
<g><path style="opacity:0.008" fill="#285b81" d="M 102.5,144.5 C 102.5,144.167 102.5,143.833 102.5,143.5C 103.167,143.5 103.833,143.5 104.5,143.5C 104.158,144.338 103.492,144.672 102.5,144.5 Z"/></g>
<g><path style="opacity:0.01" fill="#285b81" d="M 100.5,145.5 C 100.5,145.167 100.5,144.833 100.5,144.5C 101.167,144.5 101.833,144.5 102.5,144.5C 102.158,145.338 101.492,145.672 100.5,145.5 Z"/></g>
<g><path style="opacity:0.01" fill="#285b81" d="M 98.5,146.5 C 98.5,146.167 98.5,145.833 98.5,145.5C 99.1667,145.5 99.8333,145.5 100.5,145.5C 100.158,146.338 99.4916,146.672 98.5,146.5 Z"/></g>
<g><path style="opacity:0.012" fill="#285b81" d="M 97.5,146.5 C 97.8333,146.5 98.1667,146.5 98.5,146.5C 98.3147,147.17 97.9813,147.17 97.5,146.5 Z"/></g>
<g><path style="opacity:0.008" fill="#285b81" d="M 95.5,148.5 C 95.5,148.167 95.5,147.833 95.5,147.5C 96.1667,147.5 96.8333,147.5 97.5,147.5C 97.1583,148.338 96.4916,148.672 95.5,148.5 Z"/></g>
<g><path style="opacity:0.01" fill="#285b81" d="M 93.5,149.5 C 93.5,149.167 93.5,148.833 93.5,148.5C 94.1667,148.5 94.8333,148.5 95.5,148.5C 95.1583,149.338 94.4916,149.672 93.5,149.5 Z"/></g>
<g><path style="opacity:0.009" fill="#285b81" d="M 59.5,150.5 C 60.1667,150.5 60.5,150.833 60.5,151.5C 59.5029,152.713 58.5029,152.546 57.5,151C 58.0944,150.536 58.7611,150.369 59.5,150.5 Z"/></g>
<g><path style="opacity:0.012" fill="#285b81" d="M 90.5,150.5 C 90.8333,150.5 91.1667,150.5 91.5,150.5C 91.3147,151.17 90.9813,151.17 90.5,150.5 Z"/></g>
<g><path style="opacity:0.012" fill="#285b81" d="M 88.5,152.5 C 88.5,152.167 88.5,151.833 88.5,151.5C 89.1667,151.5 89.8333,151.5 90.5,151.5C 90.1583,152.338 89.4916,152.672 88.5,152.5 Z"/></g>
<g><path style="opacity:0.01" fill="#285b81" d="M 86.5,153.5 C 86.5,153.167 86.5,152.833 86.5,152.5C 87.1667,152.5 87.8333,152.5 88.5,152.5C 88.1583,153.338 87.4916,153.672 86.5,153.5 Z"/></g>
<g><path style="opacity:0.014" fill="#285b81" d="M 84.5,154.5 C 84.5,154.167 84.5,153.833 84.5,153.5C 85.1667,153.5 85.8333,153.5 86.5,153.5C 86.1583,154.338 85.4916,154.672 84.5,154.5 Z"/></g>
<g><path style="opacity:0.009" fill="#285b81" d="M 80.5,155.5 C 80.5,155.167 80.5,154.833 80.5,154.5C 81.8333,154.5 83.1667,154.5 84.5,154.5C 83.4324,155.434 82.099,155.768 80.5,155.5 Z"/></g>
<g><path style="opacity:0.011" fill="#285b81" d="M 80.5,155.5 C 77.0242,156.643 73.3575,156.81 69.5,156C 73.1516,155.501 76.8183,155.335 80.5,155.5 Z"/></g>
</svg>
